<mxfile host="app.diagrams.net" agent="Mozilla/5.0 (Windows NT 10.0; Win64; x64) AppleWebKit/537.36 (KHTML, like Gecko) Chrome/131.0.0.0 Safari/537.36" version="25.0.0">
  <diagram name="Page-1" id="8zYoDzXm1AIrhwQUtBMH">
    <mxGraphModel dx="2085" dy="701" grid="1" gridSize="10" guides="1" tooltips="1" connect="1" arrows="1" fold="1" page="1" pageScale="1" pageWidth="850" pageHeight="1100" math="0" shadow="0">
      <root>
        <mxCell id="0" />
        <mxCell id="1" parent="0" />
        <mxCell id="8LCjfrYg2eAq-xp2s0eB-2" value="Book" style="rounded=0;whiteSpace=wrap;html=1;" vertex="1" parent="1">
          <mxGeometry x="60" y="380" width="75" height="30" as="geometry" />
        </mxCell>
        <mxCell id="8LCjfrYg2eAq-xp2s0eB-5" value="&lt;u&gt;bookID&lt;/u&gt;" style="ellipse;whiteSpace=wrap;html=1;" vertex="1" parent="1">
          <mxGeometry x="10" y="310" width="75" height="30" as="geometry" />
        </mxCell>
        <mxCell id="8LCjfrYg2eAq-xp2s0eB-6" value="Title" style="ellipse;whiteSpace=wrap;html=1;" vertex="1" parent="1">
          <mxGeometry x="-30" y="340" width="75" height="30" as="geometry" />
        </mxCell>
        <mxCell id="8LCjfrYg2eAq-xp2s0eB-7" value="Author" style="ellipse;whiteSpace=wrap;html=1;" vertex="1" parent="1">
          <mxGeometry x="-40" y="380" width="75" height="30" as="geometry" />
        </mxCell>
        <mxCell id="8LCjfrYg2eAq-xp2s0eB-8" value="ISBN" style="ellipse;whiteSpace=wrap;html=1;" vertex="1" parent="1">
          <mxGeometry x="-30" y="420" width="75" height="30" as="geometry" />
        </mxCell>
        <mxCell id="8LCjfrYg2eAq-xp2s0eB-9" value="Copies_available" style="ellipse;whiteSpace=wrap;html=1;" vertex="1" parent="1">
          <mxGeometry x="-20" y="460" width="105" height="30" as="geometry" />
        </mxCell>
        <mxCell id="8LCjfrYg2eAq-xp2s0eB-10" value="Librarian" style="rounded=0;whiteSpace=wrap;html=1;rotation=0;" vertex="1" parent="1">
          <mxGeometry x="750" y="400" width="100" height="40" as="geometry" />
        </mxCell>
        <mxCell id="8LCjfrYg2eAq-xp2s0eB-11" value="userID" style="ellipse;whiteSpace=wrap;html=1;rotation=5;" vertex="1" parent="1">
          <mxGeometry x="855" y="500" width="75" height="30" as="geometry" />
        </mxCell>
        <mxCell id="8LCjfrYg2eAq-xp2s0eB-12" value="mail" style="ellipse;whiteSpace=wrap;html=1;rotation=0;" vertex="1" parent="1">
          <mxGeometry x="877.5" y="460" width="75" height="30" as="geometry" />
        </mxCell>
        <mxCell id="8LCjfrYg2eAq-xp2s0eB-13" value="Phone" style="ellipse;whiteSpace=wrap;html=1;rotation=0;direction=west;" vertex="1" parent="1">
          <mxGeometry x="887.5" y="410" width="75" height="30" as="geometry" />
        </mxCell>
        <mxCell id="8LCjfrYg2eAq-xp2s0eB-14" value="Name" style="ellipse;whiteSpace=wrap;html=1;rotation=0;direction=east;" vertex="1" parent="1">
          <mxGeometry x="877.5" y="360" width="75" height="30" as="geometry" />
        </mxCell>
        <mxCell id="8LCjfrYg2eAq-xp2s0eB-15" value="&lt;u&gt;librarian_ID&lt;/u&gt;" style="ellipse;whiteSpace=wrap;html=1;rotation=0;" vertex="1" parent="1">
          <mxGeometry x="852.5" y="310" width="75" height="30" as="geometry" />
        </mxCell>
        <mxCell id="8LCjfrYg2eAq-xp2s0eB-47" value="User_Authentication" style="rounded=0;whiteSpace=wrap;html=1;" vertex="1" parent="1">
          <mxGeometry x="414.25" y="399" width="110" height="40" as="geometry" />
        </mxCell>
        <mxCell id="8LCjfrYg2eAq-xp2s0eB-48" value="role" style="ellipse;whiteSpace=wrap;html=1;" vertex="1" parent="1">
          <mxGeometry x="465.5" y="510" width="70" height="30" as="geometry" />
        </mxCell>
        <mxCell id="8LCjfrYg2eAq-xp2s0eB-49" value="password" style="ellipse;whiteSpace=wrap;html=1;" vertex="1" parent="1">
          <mxGeometry x="483" y="470" width="70" height="30" as="geometry" />
        </mxCell>
        <mxCell id="8LCjfrYg2eAq-xp2s0eB-50" value="email" style="ellipse;whiteSpace=wrap;html=1;" vertex="1" parent="1">
          <mxGeometry x="553" y="460" width="70" height="30" as="geometry" />
        </mxCell>
        <mxCell id="8LCjfrYg2eAq-xp2s0eB-51" value="userID" style="ellipse;whiteSpace=wrap;html=1;" vertex="1" parent="1">
          <mxGeometry x="397.5" y="480" width="70" height="30" as="geometry" />
        </mxCell>
        <mxCell id="8LCjfrYg2eAq-xp2s0eB-39" value="Member" style="rounded=0;whiteSpace=wrap;html=1;rotation=-360;" vertex="1" parent="1">
          <mxGeometry x="205" y="160" width="110" height="40" as="geometry" />
        </mxCell>
        <mxCell id="8LCjfrYg2eAq-xp2s0eB-40" value="Phone" style="ellipse;whiteSpace=wrap;html=1;rotation=0;" vertex="1" parent="1">
          <mxGeometry x="277.5" y="90" width="90" height="40" as="geometry" />
        </mxCell>
        <mxCell id="8LCjfrYg2eAq-xp2s0eB-41" value="Name" style="ellipse;whiteSpace=wrap;html=1;rotation=0;" vertex="1" parent="1">
          <mxGeometry x="187.5" y="70" width="90" height="40" as="geometry" />
        </mxCell>
        <mxCell id="8LCjfrYg2eAq-xp2s0eB-44" value="userID" style="ellipse;whiteSpace=wrap;html=1;rotation=0;" vertex="1" parent="1">
          <mxGeometry x="105" y="100" width="90" height="40" as="geometry" />
        </mxCell>
        <mxCell id="8LCjfrYg2eAq-xp2s0eB-25" value="Borrow" style="rounded=0;whiteSpace=wrap;html=1;rotation=0;" vertex="1" parent="1">
          <mxGeometry x="225" y="530" width="110" height="40" as="geometry" />
        </mxCell>
        <mxCell id="8LCjfrYg2eAq-xp2s0eB-32" value="&lt;u&gt;borrowID&lt;/u&gt;" style="ellipse;whiteSpace=wrap;html=1;" vertex="1" parent="1">
          <mxGeometry x="120" y="570" width="90" height="40" as="geometry" />
        </mxCell>
        <mxCell id="8LCjfrYg2eAq-xp2s0eB-33" value="bookID" style="ellipse;whiteSpace=wrap;html=1;" vertex="1" parent="1">
          <mxGeometry x="130" y="620" width="90" height="40" as="geometry" />
        </mxCell>
        <mxCell id="8LCjfrYg2eAq-xp2s0eB-34" value="borrowDate" style="ellipse;whiteSpace=wrap;html=1;" vertex="1" parent="1">
          <mxGeometry x="195" y="660" width="90" height="40" as="geometry" />
        </mxCell>
        <mxCell id="8LCjfrYg2eAq-xp2s0eB-35" value="dueDate" style="ellipse;whiteSpace=wrap;html=1;" vertex="1" parent="1">
          <mxGeometry x="295" y="650" width="90" height="40" as="geometry" />
        </mxCell>
        <mxCell id="8LCjfrYg2eAq-xp2s0eB-36" value="fine" style="ellipse;whiteSpace=wrap;html=1;" vertex="1" parent="1">
          <mxGeometry x="352.5" y="610" width="90" height="40" as="geometry" />
        </mxCell>
        <mxCell id="8LCjfrYg2eAq-xp2s0eB-52" value="Admin" style="rounded=0;whiteSpace=wrap;html=1;rotation=-360;" vertex="1" parent="1">
          <mxGeometry x="565.5" y="180" width="110" height="40" as="geometry" />
        </mxCell>
        <mxCell id="8LCjfrYg2eAq-xp2s0eB-53" value="userID" style="ellipse;whiteSpace=wrap;html=1;rotation=0;" vertex="1" parent="1">
          <mxGeometry x="685.5" y="150" width="90" height="40" as="geometry" />
        </mxCell>
        <mxCell id="8LCjfrYg2eAq-xp2s0eB-54" value="email" style="ellipse;whiteSpace=wrap;html=1;rotation=0;" vertex="1" parent="1">
          <mxGeometry x="635.5" y="110" width="90" height="40" as="geometry" />
        </mxCell>
        <mxCell id="8LCjfrYg2eAq-xp2s0eB-55" value="Phone" style="ellipse;whiteSpace=wrap;html=1;rotation=0;" vertex="1" parent="1">
          <mxGeometry x="555.5" y="80" width="90" height="40" as="geometry" />
        </mxCell>
        <mxCell id="8LCjfrYg2eAq-xp2s0eB-56" value="Name" style="ellipse;whiteSpace=wrap;html=1;rotation=0;" vertex="1" parent="1">
          <mxGeometry x="485.5" y="110" width="90" height="40" as="geometry" />
        </mxCell>
        <mxCell id="8LCjfrYg2eAq-xp2s0eB-57" value="&lt;u&gt;adminID&lt;/u&gt;" style="ellipse;whiteSpace=wrap;html=1;rotation=0;" vertex="1" parent="1">
          <mxGeometry x="455.5" y="150" width="90" height="40" as="geometry" />
        </mxCell>
        <mxCell id="8LCjfrYg2eAq-xp2s0eB-58" value="userID" style="ellipse;whiteSpace=wrap;html=1;" vertex="1" parent="1">
          <mxGeometry x="352.5" y="560" width="90" height="40" as="geometry" />
        </mxCell>
        <mxCell id="8LCjfrYg2eAq-xp2s0eB-59" value="&lt;u&gt;memberID&lt;/u&gt;" style="ellipse;whiteSpace=wrap;html=1;rotation=0;" vertex="1" parent="1">
          <mxGeometry x="85" y="150" width="90" height="40" as="geometry" />
        </mxCell>
        <mxCell id="8LCjfrYg2eAq-xp2s0eB-60" value="email" style="ellipse;whiteSpace=wrap;html=1;rotation=0;" vertex="1" parent="1">
          <mxGeometry x="335" y="140" width="90" height="40" as="geometry" />
        </mxCell>
        <mxCell id="8LCjfrYg2eAq-xp2s0eB-65" value="" style="endArrow=none;html=1;rounded=0;exitX=1;exitY=1;exitDx=0;exitDy=0;entryX=0.25;entryY=0;entryDx=0;entryDy=0;" edge="1" parent="1" source="8LCjfrYg2eAq-xp2s0eB-5" target="8LCjfrYg2eAq-xp2s0eB-2">
          <mxGeometry width="50" height="50" relative="1" as="geometry">
            <mxPoint x="430" y="340" as="sourcePoint" />
            <mxPoint x="480" y="290" as="targetPoint" />
          </mxGeometry>
        </mxCell>
        <mxCell id="8LCjfrYg2eAq-xp2s0eB-66" value="" style="endArrow=none;html=1;rounded=0;exitX=1;exitY=1;exitDx=0;exitDy=0;entryX=0;entryY=0;entryDx=0;entryDy=0;" edge="1" parent="1" source="8LCjfrYg2eAq-xp2s0eB-6" target="8LCjfrYg2eAq-xp2s0eB-2">
          <mxGeometry width="50" height="50" relative="1" as="geometry">
            <mxPoint x="45" y="360" as="sourcePoint" />
            <mxPoint x="74" y="404" as="targetPoint" />
          </mxGeometry>
        </mxCell>
        <mxCell id="8LCjfrYg2eAq-xp2s0eB-69" value="" style="endArrow=none;html=1;rounded=0;exitX=1;exitY=0.5;exitDx=0;exitDy=0;entryX=0;entryY=0.5;entryDx=0;entryDy=0;" edge="1" parent="1" source="8LCjfrYg2eAq-xp2s0eB-7" target="8LCjfrYg2eAq-xp2s0eB-2">
          <mxGeometry width="50" height="50" relative="1" as="geometry">
            <mxPoint x="44" y="376" as="sourcePoint" />
            <mxPoint x="75" y="390" as="targetPoint" />
          </mxGeometry>
        </mxCell>
        <mxCell id="8LCjfrYg2eAq-xp2s0eB-70" value="" style="endArrow=none;html=1;rounded=0;exitX=1;exitY=0;exitDx=0;exitDy=0;entryX=0;entryY=1;entryDx=0;entryDy=0;" edge="1" parent="1" source="8LCjfrYg2eAq-xp2s0eB-8" target="8LCjfrYg2eAq-xp2s0eB-2">
          <mxGeometry width="50" height="50" relative="1" as="geometry">
            <mxPoint x="44" y="376" as="sourcePoint" />
            <mxPoint x="75" y="390" as="targetPoint" />
          </mxGeometry>
        </mxCell>
        <mxCell id="8LCjfrYg2eAq-xp2s0eB-71" value="" style="endArrow=none;html=1;rounded=0;entryX=0.25;entryY=1;entryDx=0;entryDy=0;" edge="1" parent="1" source="8LCjfrYg2eAq-xp2s0eB-9" target="8LCjfrYg2eAq-xp2s0eB-2">
          <mxGeometry width="50" height="50" relative="1" as="geometry">
            <mxPoint x="60" y="460" as="sourcePoint" />
            <mxPoint x="75" y="420" as="targetPoint" />
          </mxGeometry>
        </mxCell>
        <mxCell id="8LCjfrYg2eAq-xp2s0eB-72" value="" style="endArrow=none;html=1;rounded=0;exitX=1;exitY=1;exitDx=0;exitDy=0;entryX=0;entryY=0.75;entryDx=0;entryDy=0;" edge="1" parent="1" source="8LCjfrYg2eAq-xp2s0eB-59" target="8LCjfrYg2eAq-xp2s0eB-39">
          <mxGeometry width="50" height="50" relative="1" as="geometry">
            <mxPoint x="437.5" y="340" as="sourcePoint" />
            <mxPoint x="487.5" y="290" as="targetPoint" />
          </mxGeometry>
        </mxCell>
        <mxCell id="8LCjfrYg2eAq-xp2s0eB-73" value="" style="endArrow=none;html=1;rounded=0;exitX=1;exitY=1;exitDx=0;exitDy=0;entryX=0;entryY=0.25;entryDx=0;entryDy=0;" edge="1" parent="1" source="8LCjfrYg2eAq-xp2s0eB-44" target="8LCjfrYg2eAq-xp2s0eB-39">
          <mxGeometry width="50" height="50" relative="1" as="geometry">
            <mxPoint x="171.5" y="194" as="sourcePoint" />
            <mxPoint x="215.5" y="200" as="targetPoint" />
          </mxGeometry>
        </mxCell>
        <mxCell id="8LCjfrYg2eAq-xp2s0eB-74" value="" style="endArrow=none;html=1;rounded=0;exitX=0.5;exitY=1;exitDx=0;exitDy=0;entryX=0.25;entryY=0;entryDx=0;entryDy=0;" edge="1" parent="1" source="8LCjfrYg2eAq-xp2s0eB-41" target="8LCjfrYg2eAq-xp2s0eB-39">
          <mxGeometry width="50" height="50" relative="1" as="geometry">
            <mxPoint x="191.5" y="144" as="sourcePoint" />
            <mxPoint x="215.5" y="180" as="targetPoint" />
          </mxGeometry>
        </mxCell>
        <mxCell id="8LCjfrYg2eAq-xp2s0eB-75" value="" style="endArrow=none;html=1;rounded=0;entryX=0.75;entryY=0;entryDx=0;entryDy=0;exitX=0;exitY=1;exitDx=0;exitDy=0;" edge="1" parent="1" source="8LCjfrYg2eAq-xp2s0eB-40" target="8LCjfrYg2eAq-xp2s0eB-39">
          <mxGeometry width="50" height="50" relative="1" as="geometry">
            <mxPoint x="307.5" y="120" as="sourcePoint" />
            <mxPoint x="225.5" y="190" as="targetPoint" />
          </mxGeometry>
        </mxCell>
        <mxCell id="8LCjfrYg2eAq-xp2s0eB-76" value="" style="endArrow=none;html=1;rounded=0;exitX=0;exitY=0.5;exitDx=0;exitDy=0;entryX=1;entryY=0.5;entryDx=0;entryDy=0;" edge="1" parent="1" source="8LCjfrYg2eAq-xp2s0eB-60" target="8LCjfrYg2eAq-xp2s0eB-39">
          <mxGeometry width="50" height="50" relative="1" as="geometry">
            <mxPoint x="211.5" y="164" as="sourcePoint" />
            <mxPoint x="235.5" y="200" as="targetPoint" />
          </mxGeometry>
        </mxCell>
        <mxCell id="8LCjfrYg2eAq-xp2s0eB-77" value="" style="endArrow=none;html=1;rounded=0;entryX=0;entryY=0.25;entryDx=0;entryDy=0;" edge="1" parent="1" source="8LCjfrYg2eAq-xp2s0eB-57" target="8LCjfrYg2eAq-xp2s0eB-52">
          <mxGeometry width="50" height="50" relative="1" as="geometry">
            <mxPoint x="322.25" y="190" as="sourcePoint" />
            <mxPoint x="564.25" y="200" as="targetPoint" />
          </mxGeometry>
        </mxCell>
        <mxCell id="8LCjfrYg2eAq-xp2s0eB-78" value="" style="endArrow=none;html=1;rounded=0;exitX=1;exitY=1;exitDx=0;exitDy=0;" edge="1" parent="1" source="8LCjfrYg2eAq-xp2s0eB-56" target="8LCjfrYg2eAq-xp2s0eB-52">
          <mxGeometry width="50" height="50" relative="1" as="geometry">
            <mxPoint x="332.25" y="200" as="sourcePoint" />
            <mxPoint x="312.25" y="220" as="targetPoint" />
          </mxGeometry>
        </mxCell>
        <mxCell id="8LCjfrYg2eAq-xp2s0eB-79" value="" style="endArrow=none;html=1;rounded=0;exitX=0.5;exitY=1;exitDx=0;exitDy=0;entryX=0.5;entryY=0;entryDx=0;entryDy=0;" edge="1" parent="1" source="8LCjfrYg2eAq-xp2s0eB-55" target="8LCjfrYg2eAq-xp2s0eB-52">
          <mxGeometry width="50" height="50" relative="1" as="geometry">
            <mxPoint x="572.25" y="154" as="sourcePoint" />
            <mxPoint x="614.25" y="170" as="targetPoint" />
          </mxGeometry>
        </mxCell>
        <mxCell id="8LCjfrYg2eAq-xp2s0eB-82" value="" style="endArrow=none;html=1;rounded=0;exitX=0;exitY=1;exitDx=0;exitDy=0;entryX=0.75;entryY=0;entryDx=0;entryDy=0;" edge="1" parent="1" source="8LCjfrYg2eAq-xp2s0eB-54" target="8LCjfrYg2eAq-xp2s0eB-52">
          <mxGeometry width="50" height="50" relative="1" as="geometry">
            <mxPoint x="582.25" y="164" as="sourcePoint" />
            <mxPoint x="619.25" y="200" as="targetPoint" />
          </mxGeometry>
        </mxCell>
        <mxCell id="8LCjfrYg2eAq-xp2s0eB-83" value="" style="endArrow=none;html=1;rounded=0;exitX=0.244;exitY=0.92;exitDx=0;exitDy=0;exitPerimeter=0;entryX=1;entryY=0.25;entryDx=0;entryDy=0;" edge="1" parent="1" source="8LCjfrYg2eAq-xp2s0eB-53" target="8LCjfrYg2eAq-xp2s0eB-52">
          <mxGeometry width="50" height="50" relative="1" as="geometry">
            <mxPoint x="592.25" y="174" as="sourcePoint" />
            <mxPoint x="629.25" y="210" as="targetPoint" />
          </mxGeometry>
        </mxCell>
        <mxCell id="8LCjfrYg2eAq-xp2s0eB-84" value="" style="endArrow=none;html=1;rounded=0;entryX=0.085;entryY=0.995;entryDx=0;entryDy=0;exitX=0.5;exitY=0;exitDx=0;exitDy=0;entryPerimeter=0;" edge="1" parent="1" source="8LCjfrYg2eAq-xp2s0eB-51" target="8LCjfrYg2eAq-xp2s0eB-47">
          <mxGeometry width="50" height="50" relative="1" as="geometry">
            <mxPoint x="391.75" y="400" as="sourcePoint" />
            <mxPoint x="776.75" y="200" as="targetPoint" />
          </mxGeometry>
        </mxCell>
        <mxCell id="8LCjfrYg2eAq-xp2s0eB-85" value="" style="endArrow=none;html=1;rounded=0;" edge="1" parent="1" source="8LCjfrYg2eAq-xp2s0eB-48">
          <mxGeometry width="50" height="50" relative="1" as="geometry">
            <mxPoint x="749.75" y="174" as="sourcePoint" />
            <mxPoint x="451.75" y="440" as="targetPoint" />
          </mxGeometry>
        </mxCell>
        <mxCell id="8LCjfrYg2eAq-xp2s0eB-86" value="" style="endArrow=none;html=1;rounded=0;entryX=0.75;entryY=1;entryDx=0;entryDy=0;" edge="1" parent="1" source="8LCjfrYg2eAq-xp2s0eB-49" target="8LCjfrYg2eAq-xp2s0eB-47">
          <mxGeometry width="50" height="50" relative="1" as="geometry">
            <mxPoint x="428.75" y="360" as="sourcePoint" />
            <mxPoint x="444.75" y="410" as="targetPoint" />
          </mxGeometry>
        </mxCell>
        <mxCell id="8LCjfrYg2eAq-xp2s0eB-88" value="" style="endArrow=none;html=1;rounded=0;entryX=1;entryY=0.25;entryDx=0;entryDy=0;exitX=0;exitY=0;exitDx=0;exitDy=0;" edge="1" parent="1" source="8LCjfrYg2eAq-xp2s0eB-50" target="8LCjfrYg2eAq-xp2s0eB-47">
          <mxGeometry width="50" height="50" relative="1" as="geometry">
            <mxPoint x="497.75" y="357" as="sourcePoint" />
            <mxPoint x="469.75" y="410" as="targetPoint" />
          </mxGeometry>
        </mxCell>
        <mxCell id="8LCjfrYg2eAq-xp2s0eB-89" value="" style="endArrow=none;html=1;rounded=0;entryX=0.75;entryY=0;entryDx=0;entryDy=0;exitX=0;exitY=1;exitDx=0;exitDy=0;" edge="1" parent="1" source="8LCjfrYg2eAq-xp2s0eB-15" target="8LCjfrYg2eAq-xp2s0eB-10">
          <mxGeometry width="50" height="50" relative="1" as="geometry">
            <mxPoint x="576" y="357" as="sourcePoint" />
            <mxPoint x="548" y="410" as="targetPoint" />
          </mxGeometry>
        </mxCell>
        <mxCell id="8LCjfrYg2eAq-xp2s0eB-90" value="" style="endArrow=none;html=1;rounded=0;entryX=1;entryY=0;entryDx=0;entryDy=0;exitX=0;exitY=0.5;exitDx=0;exitDy=0;" edge="1" parent="1" source="8LCjfrYg2eAq-xp2s0eB-14" target="8LCjfrYg2eAq-xp2s0eB-10">
          <mxGeometry width="50" height="50" relative="1" as="geometry">
            <mxPoint x="874" y="346" as="sourcePoint" />
            <mxPoint x="835" y="410" as="targetPoint" />
          </mxGeometry>
        </mxCell>
        <mxCell id="8LCjfrYg2eAq-xp2s0eB-91" value="" style="endArrow=none;html=1;rounded=0;entryX=1;entryY=0.5;entryDx=0;entryDy=0;" edge="1" parent="1" source="8LCjfrYg2eAq-xp2s0eB-13" target="8LCjfrYg2eAq-xp2s0eB-10">
          <mxGeometry width="50" height="50" relative="1" as="geometry">
            <mxPoint x="888" y="385" as="sourcePoint" />
            <mxPoint x="860" y="410" as="targetPoint" />
          </mxGeometry>
        </mxCell>
        <mxCell id="8LCjfrYg2eAq-xp2s0eB-92" value="" style="endArrow=none;html=1;rounded=0;entryX=1;entryY=1;entryDx=0;entryDy=0;exitX=0;exitY=0;exitDx=0;exitDy=0;" edge="1" parent="1" source="8LCjfrYg2eAq-xp2s0eB-12" target="8LCjfrYg2eAq-xp2s0eB-10">
          <mxGeometry width="50" height="50" relative="1" as="geometry">
            <mxPoint x="898" y="433" as="sourcePoint" />
            <mxPoint x="860" y="430" as="targetPoint" />
          </mxGeometry>
        </mxCell>
        <mxCell id="8LCjfrYg2eAq-xp2s0eB-93" value="" style="endArrow=none;html=1;rounded=0;entryX=0.844;entryY=1.05;entryDx=0;entryDy=0;exitX=0;exitY=0;exitDx=0;exitDy=0;entryPerimeter=0;" edge="1" parent="1" source="8LCjfrYg2eAq-xp2s0eB-11" target="8LCjfrYg2eAq-xp2s0eB-10">
          <mxGeometry width="50" height="50" relative="1" as="geometry">
            <mxPoint x="899" y="474" as="sourcePoint" />
            <mxPoint x="860" y="450" as="targetPoint" />
          </mxGeometry>
        </mxCell>
        <mxCell id="8LCjfrYg2eAq-xp2s0eB-94" value="" style="endArrow=none;html=1;rounded=0;entryX=0;entryY=0.75;entryDx=0;entryDy=0;exitX=1;exitY=0;exitDx=0;exitDy=0;" edge="1" parent="1" source="8LCjfrYg2eAq-xp2s0eB-32" target="8LCjfrYg2eAq-xp2s0eB-25">
          <mxGeometry width="50" height="50" relative="1" as="geometry">
            <mxPoint x="601.5" y="424" as="sourcePoint" />
            <mxPoint x="562.5" y="400" as="targetPoint" />
          </mxGeometry>
        </mxCell>
        <mxCell id="8LCjfrYg2eAq-xp2s0eB-95" value="" style="endArrow=none;html=1;rounded=0;entryX=0;entryY=0.75;entryDx=0;entryDy=0;" edge="1" parent="1" source="8LCjfrYg2eAq-xp2s0eB-33">
          <mxGeometry width="50" height="50" relative="1" as="geometry">
            <mxPoint x="206.5" y="586" as="sourcePoint" />
            <mxPoint x="235.5" y="570" as="targetPoint" />
          </mxGeometry>
        </mxCell>
        <mxCell id="8LCjfrYg2eAq-xp2s0eB-96" value="" style="endArrow=none;html=1;rounded=0;entryX=0.25;entryY=1;entryDx=0;entryDy=0;" edge="1" parent="1" source="8LCjfrYg2eAq-xp2s0eB-34" target="8LCjfrYg2eAq-xp2s0eB-25">
          <mxGeometry width="50" height="50" relative="1" as="geometry">
            <mxPoint x="216.5" y="596" as="sourcePoint" />
            <mxPoint x="245.5" y="580" as="targetPoint" />
          </mxGeometry>
        </mxCell>
        <mxCell id="8LCjfrYg2eAq-xp2s0eB-98" value="" style="endArrow=none;html=1;rounded=0;exitX=0;exitY=0;exitDx=0;exitDy=0;" edge="1" parent="1" source="8LCjfrYg2eAq-xp2s0eB-35" target="8LCjfrYg2eAq-xp2s0eB-25">
          <mxGeometry width="50" height="50" relative="1" as="geometry">
            <mxPoint x="258.5" y="667" as="sourcePoint" />
            <mxPoint x="262.5" y="580" as="targetPoint" />
          </mxGeometry>
        </mxCell>
        <mxCell id="8LCjfrYg2eAq-xp2s0eB-99" value="" style="endArrow=none;html=1;rounded=0;exitX=0;exitY=0.5;exitDx=0;exitDy=0;" edge="1" parent="1" source="8LCjfrYg2eAq-xp2s0eB-36" target="8LCjfrYg2eAq-xp2s0eB-25">
          <mxGeometry width="50" height="50" relative="1" as="geometry">
            <mxPoint x="318.5" y="666" as="sourcePoint" />
            <mxPoint x="300.5" y="582" as="targetPoint" />
          </mxGeometry>
        </mxCell>
        <mxCell id="8LCjfrYg2eAq-xp2s0eB-100" value="" style="endArrow=none;html=1;rounded=0;entryX=1;entryY=1;entryDx=0;entryDy=0;exitX=0;exitY=0.5;exitDx=0;exitDy=0;" edge="1" parent="1" source="8LCjfrYg2eAq-xp2s0eB-58" target="8LCjfrYg2eAq-xp2s0eB-25">
          <mxGeometry width="50" height="50" relative="1" as="geometry">
            <mxPoint x="362.5" y="640" as="sourcePoint" />
            <mxPoint x="330.5" y="583" as="targetPoint" />
          </mxGeometry>
        </mxCell>
        <mxCell id="8LCjfrYg2eAq-xp2s0eB-102" value="authinticated&lt;div&gt;as&lt;/div&gt;" style="rhombus;whiteSpace=wrap;html=1;rotation=0;flipH=1;flipV=0;" vertex="1" parent="1">
          <mxGeometry x="561.75" y="350" width="90" height="80" as="geometry" />
        </mxCell>
        <mxCell id="8LCjfrYg2eAq-xp2s0eB-103" value="1" style="endArrow=none;html=1;rounded=0;entryX=1;entryY=0;entryDx=0;entryDy=0;exitX=0;exitY=0.5;exitDx=0;exitDy=0;" edge="1" parent="1" source="8LCjfrYg2eAq-xp2s0eB-102" target="8LCjfrYg2eAq-xp2s0eB-47">
          <mxGeometry x="-0.1125" y="-14" width="50" height="50" relative="1" as="geometry">
            <mxPoint x="573.75" y="474" as="sourcePoint" />
            <mxPoint x="534.75" y="420" as="targetPoint" />
            <mxPoint as="offset" />
          </mxGeometry>
        </mxCell>
        <mxCell id="8LCjfrYg2eAq-xp2s0eB-104" value="1" style="endArrow=none;html=1;rounded=0;exitX=0;exitY=0.25;exitDx=0;exitDy=0;entryX=1;entryY=0.5;entryDx=0;entryDy=0;" edge="1" parent="1" source="8LCjfrYg2eAq-xp2s0eB-10" target="8LCjfrYg2eAq-xp2s0eB-102">
          <mxGeometry x="0.1579" y="-9" width="50" height="50" relative="1" as="geometry">
            <mxPoint x="529" y="410" as="sourcePoint" />
            <mxPoint x="580" y="400" as="targetPoint" />
            <mxPoint as="offset" />
          </mxGeometry>
        </mxCell>
        <mxCell id="8LCjfrYg2eAq-xp2s0eB-105" value="authinticated&lt;div&gt;as&lt;/div&gt;" style="rhombus;whiteSpace=wrap;html=1;rotation=45;flipH=1;flipV=0;" vertex="1" parent="1">
          <mxGeometry x="484.25" y="270" width="90" height="80" as="geometry" />
        </mxCell>
        <mxCell id="8LCjfrYg2eAq-xp2s0eB-106" value="1" style="endArrow=none;html=1;rounded=0;entryX=0.359;entryY=-0.045;entryDx=0;entryDy=0;exitX=0.5;exitY=1;exitDx=0;exitDy=0;entryPerimeter=0;" edge="1" parent="1" source="8LCjfrYg2eAq-xp2s0eB-105" target="8LCjfrYg2eAq-xp2s0eB-47">
          <mxGeometry x="-0.02" y="-11" width="50" height="50" relative="1" as="geometry">
            <mxPoint x="481.25" y="364" as="sourcePoint" />
            <mxPoint x="432.25" y="289" as="targetPoint" />
            <mxPoint as="offset" />
          </mxGeometry>
        </mxCell>
        <mxCell id="8LCjfrYg2eAq-xp2s0eB-107" value="1" style="endArrow=none;html=1;rounded=0;exitX=0.25;exitY=1;exitDx=0;exitDy=0;entryX=0.5;entryY=0;entryDx=0;entryDy=0;" edge="1" parent="1" target="8LCjfrYg2eAq-xp2s0eB-105" source="8LCjfrYg2eAq-xp2s0eB-52">
          <mxGeometry x="0.1342" y="-6" width="50" height="50" relative="1" as="geometry">
            <mxPoint x="545.5" y="299" as="sourcePoint" />
            <mxPoint x="487.5" y="290" as="targetPoint" />
            <mxPoint as="offset" />
          </mxGeometry>
        </mxCell>
        <mxCell id="8LCjfrYg2eAq-xp2s0eB-111" value="authinticated&lt;div&gt;as&lt;/div&gt;" style="rhombus;whiteSpace=wrap;html=1;rotation=0;flipH=1;flipV=0;" vertex="1" parent="1">
          <mxGeometry x="349.25" y="250" width="90" height="80" as="geometry" />
        </mxCell>
        <mxCell id="8LCjfrYg2eAq-xp2s0eB-112" value="1" style="endArrow=none;html=1;rounded=0;entryX=0;entryY=0;entryDx=0;entryDy=0;exitX=0.5;exitY=1;exitDx=0;exitDy=0;" edge="1" parent="1" source="8LCjfrYg2eAq-xp2s0eB-111" target="8LCjfrYg2eAq-xp2s0eB-47">
          <mxGeometry x="-0.02" y="-11" width="50" height="50" relative="1" as="geometry">
            <mxPoint x="326.25" y="337" as="sourcePoint" />
            <mxPoint x="298.75" y="370" as="targetPoint" />
            <mxPoint as="offset" />
          </mxGeometry>
        </mxCell>
        <mxCell id="8LCjfrYg2eAq-xp2s0eB-113" value="1" style="endArrow=none;html=1;rounded=0;entryX=0.5;entryY=0;entryDx=0;entryDy=0;exitX=0.75;exitY=1;exitDx=0;exitDy=0;" edge="1" parent="1" target="8LCjfrYg2eAq-xp2s0eB-111" source="8LCjfrYg2eAq-xp2s0eB-39">
          <mxGeometry x="0.1342" y="-6" width="50" height="50" relative="1" as="geometry">
            <mxPoint x="290" y="210" as="sourcePoint" />
            <mxPoint x="332.5" y="263" as="targetPoint" />
            <mxPoint as="offset" />
          </mxGeometry>
        </mxCell>
        <mxCell id="8LCjfrYg2eAq-xp2s0eB-116" value="has" style="rhombus;whiteSpace=wrap;html=1;" vertex="1" parent="1">
          <mxGeometry x="230" y="360" width="80" height="80" as="geometry" />
        </mxCell>
        <mxCell id="8LCjfrYg2eAq-xp2s0eB-117" value="1" style="endArrow=none;html=1;rounded=0;entryX=0.5;entryY=1;entryDx=0;entryDy=0;" edge="1" parent="1" source="8LCjfrYg2eAq-xp2s0eB-116" target="8LCjfrYg2eAq-xp2s0eB-39">
          <mxGeometry x="-0.2384" y="-5" width="50" height="50" relative="1" as="geometry">
            <mxPoint x="320" y="450" as="sourcePoint" />
            <mxPoint x="370" y="400" as="targetPoint" />
            <mxPoint as="offset" />
          </mxGeometry>
        </mxCell>
        <mxCell id="8LCjfrYg2eAq-xp2s0eB-118" value="N" style="endArrow=none;html=1;rounded=0;exitX=0.5;exitY=1;exitDx=0;exitDy=0;entryX=0.5;entryY=0;entryDx=0;entryDy=0;" edge="1" parent="1" source="8LCjfrYg2eAq-xp2s0eB-116" target="8LCjfrYg2eAq-xp2s0eB-25">
          <mxGeometry x="0.122" y="4" width="50" height="50" relative="1" as="geometry">
            <mxPoint x="278" y="372" as="sourcePoint" />
            <mxPoint x="300" y="630" as="targetPoint" />
            <mxPoint as="offset" />
          </mxGeometry>
        </mxCell>
        <mxCell id="8LCjfrYg2eAq-xp2s0eB-119" value="is&lt;div&gt;borrowed&lt;/div&gt;" style="rhombus;whiteSpace=wrap;html=1;rotation=-30;" vertex="1" parent="1">
          <mxGeometry x="143.06" y="437.66" width="80" height="81.25" as="geometry" />
        </mxCell>
        <mxCell id="8LCjfrYg2eAq-xp2s0eB-121" value="1" style="endArrow=none;html=1;rounded=0;exitX=0.5;exitY=0;exitDx=0;exitDy=0;entryX=1;entryY=1;entryDx=0;entryDy=0;" edge="1" parent="1">
          <mxGeometry x="-0.4831" y="-7" width="50" height="50" relative="1" as="geometry">
            <mxPoint x="161.74749999999995" y="443.10271797125733" as="sourcePoint" />
            <mxPoint x="134" y="410" as="targetPoint" />
            <mxPoint as="offset" />
          </mxGeometry>
        </mxCell>
        <mxCell id="8LCjfrYg2eAq-xp2s0eB-122" value="N" style="endArrow=none;html=1;rounded=0;exitX=0;exitY=0.5;exitDx=0;exitDy=0;entryX=0.5;entryY=1;entryDx=0;entryDy=0;" edge="1" parent="1" source="8LCjfrYg2eAq-xp2s0eB-25" target="8LCjfrYg2eAq-xp2s0eB-119">
          <mxGeometry width="50" height="50" relative="1" as="geometry">
            <mxPoint x="166" y="457" as="sourcePoint" />
            <mxPoint x="145" y="420" as="targetPoint" />
          </mxGeometry>
        </mxCell>
      </root>
    </mxGraphModel>
  </diagram>
</mxfile>
